Coordinates
version=1
nRows=13
nColumns=63
inDegrees=yes

Units are S.I. units (second, meters, Newtons, ...)
If the header above contains a line with 'inDegrees', this indicates whether rotational values are in degrees (yes) or radians (no).

endheader
time	pelvis_tilt	pelvis_list	pelvis_rotation	pelvis_tx	pelvis_ty	pelvis_tz	hip_flexion_r	hip_adduction_r	hip_rotation_r	knee_angle_r	knee_angle_r_beta	ankle_angle_r	subtalar_angle_r	mtp_angle_r	hip_flexion_l	hip_adduction_l	hip_rotation_l	knee_angle_l	knee_angle_l_beta	ankle_angle_l	subtalar_angle_l	mtp_angle_l	L5_S1_Flex_Ext	L5_S1_Lat_Bending	L5_S1_axial_rotation	L4_L5_Flex_Ext	L4_L5_Lat_Bending	L4_L5_axial_rotation	L3_L4_Flex_Ext	L3_L4_Lat_Bending	L3_L4_axial_rotation	L2_L3_Flex_Ext	L2_L3_Lat_Bending	L2_L3_axial_rotation	L1_L2_Flex_Ext	L1_L2_Lat_Bending	L1_L2_axial_rotation	L1_T12_Flex_Ext	L1_T12_Lat_Bending	L1_T12_axial_rotation	Abs_r3	Abs_r2	Abs_r1	Abs_t1	Abs_t2	neck_flexion	neck_bending	neck_rotation	arm_flex_r	arm_add_r	arm_rot_r	elbow_flex_r	pro_sup_r	wrist_flex_r	wrist_dev_r	arm_flex_l	arm_add_l	arm_rot_l	elbow_flex_l	pro_sup_l	wrist_flex_l	wrist_dev_l
1.466667	1.371139	2.531442	98.571567	0.010749	1.019682	0.630207	-10.188618	-0.081081	12.326479	0.209679	0.003660	26.033084	-15.203003	0.000000	-7.369771	0.117906	21.084218	0.234036	0.004085	28.132851	-15.433524	0.000000	-0.264869	-0.193250	-0.385111	-0.491888	-0.257022	-0.409181	-0.435153	-0.469867	-0.409181	-0.302719	-0.469867	-0.336972	-0.245957	-0.394074	-0.312903	-0.151346	-0.299344	-0.288833	-1.891933	-2.186077	-2.141872	0.000000	0.000000	26.158751	10.685559	3.209684	5.279084	-11.705516	148.895587	9.740855	3.684550	-9.570973	-9.158875	3.661213	-12.629692	185.138170	-0.781046	25.799760	-8.068748	-3.641254
1.483333	1.448549	2.684828	98.693044	0.010515	1.019884	0.630582	-10.334116	0.039394	12.302262	0.207503	0.003622	26.005784	-15.320624	0.000000	-7.487239	-0.001378	21.033208	0.234779	0.004098	28.310251	-15.175262	0.000000	-0.287839	-0.174762	-0.430107	-0.534545	-0.232433	-0.456988	-0.472890	-0.424916	-0.456988	-0.328971	-0.424916	-0.376343	-0.267287	-0.356374	-0.349462	-0.164471	-0.270706	-0.322580	-2.056003	-1.976942	-2.392124	0.000000	0.000000	25.897959	10.762510	3.668255	5.232045	-11.637532	149.358382	9.640544	3.627207	-9.441645	-8.840516	3.493418	-12.458064	185.842200	-0.788255	27.674022	-8.283713	-3.280247
1.500000	1.552128	2.805931	98.771268	0.010322	1.020024	0.631153	-10.428274	0.172028	12.343256	0.207028	0.003613	25.942529	-15.452092	0.000000	-7.558153	-0.134750	20.961468	0.236276	0.004124	28.517463	-14.946870	0.000000	-0.306696	-0.150715	-0.470824	-0.569565	-0.200451	-0.500251	-0.503871	-0.366449	-0.500251	-0.350523	-0.366449	-0.411971	-0.284798	-0.307338	-0.382545	-0.175246	-0.233458	-0.353118	-2.190700	-1.704919	-2.618584	0.000000	0.000000	25.642856	10.779621	4.237224	5.171143	-11.699384	148.687113	9.702661	3.577525	-9.190619	-8.603140	3.216453	-12.436194	183.314081	-0.264843	30.820370	-8.513417	-2.826776
1.516667	1.680818	2.905164	98.795142	0.010188	1.020116	0.631918	-10.480793	0.315908	12.455794	0.208344	0.003636	25.836892	-15.595929	0.000000	-7.595196	-0.280309	20.832114	0.237847	0.004151	28.742335	-14.736859	0.000000	-0.323626	-0.121172	-0.497538	-0.601005	-0.161158	-0.528634	-0.531684	-0.294617	-0.528634	-0.369872	-0.294617	-0.435346	-0.300519	-0.247093	-0.404250	-0.184920	-0.187695	-0.373154	-2.311625	-1.370719	-2.767158	0.000000	0.000000	25.421314	10.731033	4.895082	5.077065	-11.883140	146.904099	9.901626	3.520868	-8.839142	-8.450261	2.907235	-12.567514	177.582770	0.772866	35.425802	-8.776968	-2.243007
1.533333	1.851289	2.952255	98.784224	0.009981	1.020138	0.632826	-10.462021	0.480488	12.610325	0.211499	0.003691	25.691254	-15.730635	0.000000	-7.566577	-0.446923	20.658811	0.240502	0.004198	28.974783	-14.547505	0.000000	-0.333189	-0.082642	-0.521750	-0.618765	-0.109914	-0.554359	-0.547396	-0.200936	-0.554359	-0.380802	-0.200936	-0.456531	-0.309399	-0.168524	-0.423922	-0.190384	-0.128013	-0.391312	-2.379936	-0.934864	-2.901815	0.000000	0.000000	25.235359	10.599635	5.686305	4.969828	-12.201817	144.173689	10.223875	3.509643	-8.416267	-8.388984	2.823504	-12.333065	176.795427	0.746778	34.609339	-8.541987	-2.296490
1.550000	2.030803	2.960091	98.759252	0.009793	1.020065	0.633879	-10.388906	0.643333	12.806840	0.215958	0.003769	25.526361	-15.895100	0.000000	-7.488420	-0.609948	20.488803	0.244479	0.004267	29.184668	-14.426964	0.000000	-0.338570	-0.042023	-0.542210	-0.628758	-0.055890	-0.576098	-0.556236	-0.102174	-0.576098	-0.386951	-0.102174	-0.474434	-0.314396	-0.085692	-0.440545	-0.193459	-0.065093	-0.406657	-2.418369	-0.475367	-3.015608	0.000000	0.000000	25.097020	10.436632	6.520411	4.867470	-12.584410	140.852078	10.619092	3.460688	-7.962441	-8.414273	2.768795	-12.107207	175.728615	0.734745	32.702236	-8.156819	-2.452230
1.566667	2.208269	2.934241	98.747967	0.009633	1.019898	0.635075	-10.267896	0.800071	12.907470	0.221675	0.003869	25.401549	-15.930031	0.000000	-7.365511	-0.765579	20.220838	0.250627	0.004374	29.406248	-14.190990	0.000000	-0.341718	-0.001889	-0.561314	-0.634605	-0.002513	-0.596397	-0.561409	-0.004594	-0.596397	-0.390550	-0.004594	-0.491150	-0.317319	-0.003853	-0.456068	-0.195258	-0.002927	-0.420986	-2.440858	-0.021373	-3.121862	0.000000	0.000000	25.016996	10.255766	7.334457	4.767398	-13.008488	136.866052	11.079700	3.487614	-7.475340	-8.501492	2.755906	-11.903898	174.462723	0.735394	29.977534	-7.674581	-2.736728
1.583333	2.378931	2.873194	98.744813	0.009524	1.019634	0.636384	-10.096474	0.946078	12.920876	0.228777	0.003993	25.335352	-15.842834	0.000000	-7.199820	-0.909019	19.908805	0.258792	0.004517	29.608665	-13.928524	0.000000	-0.342381	0.035995	-0.576526	-0.635836	0.047873	-0.612558	-0.562498	0.087517	-0.612558	-0.391307	0.087517	-0.504460	-0.317935	0.073400	-0.468427	-0.195637	0.055756	-0.432394	-2.445595	0.407179	-3.206462	0.000000	0.000000	24.987808	10.064202	8.059030	4.689545	-13.430725	132.648584	11.556747	3.519957	-6.993597	-8.654918	2.787806	-11.724265	173.261019	0.739945	26.540784	-7.137617	-3.114427
1.600000	2.539014	2.775585	98.773298	0.009442	1.019278	0.637786	-9.875883	1.081857	12.831288	0.236562	0.004129	25.326732	-15.653120	0.000000	-6.989210	-1.039950	19.642027	0.268405	0.004685	29.763748	-13.721925	0.000000	-0.340482	0.070182	-0.591753	-0.632309	0.093342	-0.628737	-0.559378	0.170640	-0.628737	-0.389137	0.170640	-0.517784	-0.316172	0.143115	-0.480799	-0.194551	0.108712	-0.443815	-2.432029	0.793910	-3.291152	0.000000	0.000000	25.007398	9.865997	8.648721	4.642890	-13.818150	128.446867	12.011560	3.553901	-6.519604	-8.857519	2.859831	-11.562910	172.122799	0.745248	22.934253	-6.635852	-3.557977
1.616667	2.688124	2.641908	98.841303	0.009368	1.018845	0.639249	-9.609425	1.207957	12.661359	0.244878	0.004274	25.365127	-15.404590	0.000000	-6.735046	-1.158771	19.425265	0.279159	0.004872	29.876039	-13.554160	0.000000	-0.335898	0.099933	-0.609807	-0.623796	0.132911	-0.647919	-0.551846	0.242978	-0.647919	-0.383898	0.242978	-0.533581	-0.311915	0.203784	-0.495468	-0.191932	0.154797	-0.457355	-2.399284	1.130467	-3.391561	0.000000	0.000000	25.072410	9.667156	9.081020	4.630639	-14.138515	124.534043	12.397768	3.589165	-6.085297	-9.091163	2.956708	-11.413217	171.009671	0.757204	19.465135	-6.201506	-4.003355
1.633333	2.818241	2.478731	98.957056	0.009294	1.018354	0.640747	-9.319343	1.319589	12.599198	0.232202	0.004053	25.357775	-15.384576	0.000000	-6.457039	-1.262114	19.471374	0.266544	0.004652	29.877402	-13.679388	0.000000	-0.330628	0.123716	-0.631368	-0.614009	0.164543	-0.670828	-0.543188	0.300804	-0.670828	-0.377874	0.300804	-0.552447	-0.307021	0.252282	-0.512986	-0.188921	0.191636	-0.473526	-2.361641	1.399503	-3.511479	0.000000	0.000000	25.236665	9.468338	9.326051	4.663613	-14.346497	121.429727	12.639533	3.397017	-5.697344	-9.360150	3.056727	-11.275156	170.206050	0.719463	16.048029	-5.799193	-4.385706
1.650000	2.938482	2.273386	99.112555	0.009199	1.017815	0.642241	-8.972211	1.419242	12.244629	0.253005	0.004416	25.467222	-14.997177	0.000000	-6.117641	-1.352965	19.291040	0.291188	0.005082	29.961212	-13.405589	0.000000	-0.318798	0.142411	-0.658999	-0.592041	0.189406	-0.700186	-0.523754	0.346258	-0.700186	-0.364355	0.346258	-0.576624	-0.296036	0.290404	-0.535436	-0.182161	0.220594	-0.494249	-2.277145	1.610980	-3.665152	0.000000	0.000000	25.361049	9.308103	9.445227	4.702191	-14.474227	118.776722	12.777981	3.535069	-5.451818	-9.568676	3.181957	-11.151798	169.065723	0.791298	13.410880	-5.537192	-4.688894
1.666667	3.036947	2.048729	99.294113	0.009118	1.017251	0.643703	-8.619906	1.499881	12.020719	0.258679	0.004515	25.502578	-14.846083	0.000000	-5.771923	-1.426061	19.296244	0.297708	0.005196	29.968027	-13.312082	0.000000	-0.306403	0.154552	-0.690851	-0.569021	0.205554	-0.734029	-0.503390	0.375777	-0.734029	-0.350188	0.375777	-0.604494	-0.284526	0.315162	-0.561316	-0.175079	0.239401	-0.518138	-2.188607	1.748320	-3.842304	0.000000	0.000000	25.566247	9.197929	9.442273	4.773613	-14.476081	117.143379	12.731491	3.552309	-5.296103	-9.744090	3.303073	-11.045538	168.078544	0.845973	11.065603	-5.295103	-4.896970
